<svg width="20" height="20" viewBox="0 0 20 20" fill="none" xmlns="http://www.w3.org/2000/svg">
<path d="M14.2859 15.0769C13.9935 15.6436 13.4089 15.9996 12.7712 15.9998H7.22925C6.59152 15.9998 6.00712 15.6436 5.7146 15.0769L5.23804 5.84644H14.7615L14.2859 15.0769ZM7.38062 6.76929C7.24929 6.76944 7.14331 6.852 7.14331 6.95386V13.9685C7.14331 14.0704 7.24929 14.1529 7.38062 14.1531H7.85718C7.98867 14.1531 8.09546 14.0705 8.09546 13.9685V6.95386C8.09546 6.8519 7.98867 6.76929 7.85718 6.76929H7.38062ZM9.78394 6.76929C9.64048 6.76929 9.52417 6.88354 9.52417 7.02417V13.8992C9.5243 14.0397 9.64057 14.1531 9.78394 14.1531H10.2166C10.3599 14.153 10.4762 14.0397 10.4763 13.8992V7.02417C10.4763 6.88356 10.36 6.76932 10.2166 6.76929H9.78394ZM12.1648 6.76929C12.0213 6.76929 11.905 6.88354 11.905 7.02417V13.8992C11.9052 14.0397 12.0214 14.1531 12.1648 14.1531H12.5974C12.7408 14.1531 12.857 14.0397 12.8572 13.8992V7.02417C12.8572 6.88354 12.7409 6.76929 12.5974 6.76929H12.1648Z" fill="#FFF6F6"/>
<path d="M10.5061 4C11.0156 4.00026 11.4288 4.41332 11.429 4.92285H8.57153C8.57164 4.41322 8.98476 4.00011 9.49438 4H10.5061Z" fill="#FFF6F6"/>
<path d="M5 5.34864C5 5.00879 5.27551 4.73328 5.61537 4.73328H10H14.3846C14.7245 4.73328 15 5.00879 15 5.34864C15 5.51857 14.8622 5.65633 14.6923 5.65633H5.30768C5.13775 5.65633 5 5.51857 5 5.34864Z" fill="#FFF6F6"/>
<rect x="0.75" y="0.75" width="18.5" height="18.5" rx="3.25" stroke="white" stroke-width="1.5"/>
</svg>
